# xmcd
#
# Track frame offsets:
#  182
#  17450
#  41180
#  65165
#  83477
#  101407
#  122297
#
# Disc length: 2044 seconds
#
# Revision: 4
# Processed by: cddbd v1.5.1PL2 Copyright (c) Steve Scherf et al.
# Submitted via: Collectorz.com_Music_Collector 6.9
#
DISCID=4c07fa07
DTITLE=Groundhogs - Blues Obituary
DYEAR=1969
DGENRE=Blues - Blues-Rock - Rock
TTITLE0=B.D.D.
TTITLE1=Daze of the Weak
TTITLE2=Times
TTITLE3=Mistreated
TTITLE4=Express Man
TTITLE5=Natchez Burning
TTITLE6=Light Was The Day
EXTD=
EXTT0=
EXTT1=
EXTT2=
EXTT3=
EXTT4=
EXTT5=
EXTT6=
PLAYORDER=
